:SAMPLES-PER-SECOND 30
:FULLY-SPECIFIED
:DEGREES
128
root  34.8785911 36.57684927 -14.27553132 10.39051533 -0.9824234247 4.242500782
lowerback  -8.694509506 1.017639995 0.6172792315
upperback  -3.980439901 1.890619993 -4.510809898
thorax  0.9156799912 1.125079989 -4.848680019
lowerneck  -11.32240009 -8.998350143 -5.367670059
upperneck  11.21529961 -12.70790005 8.339739799
head  6.138090134 -5.946790218 2.30982995
lclavicle  0 -4.497500157e-015 -2.743230041e-014
lhumerus  -47.68999863 30.43110085 61.98469925
lradius  -0.1058372557 -6.507048965e-006 28.60860252
lwrist  3.192251654e-007 -3.790274832e-007 -30.31159973
lhand  -3.509526522e-031 -36.82360077 -10.76970005
lfingers  90 7.125020027 -90
lthumb  94.80029297 -25.60651779 100.9959946
rclavicle  0 -4.497500157e-015 -2.743230041e-014
rhumerus  52.08460236 -22.89040184 -47.49000168
rradius  -5.16745672e-007 2.214343908e-008 48.7466011
rwrist  0.0006954420824 -0.004670973402 -165.0619965
rhand  -3.187873203e-031 4.642620087 -5.135449886
rfingers  -90 -7.125020027 -90
rthumb  -83.78197479 -10.61317921 -59.39288712
rfemur  -12.07441044 14.2195797 12.40528107
rtibia  -0.9613071084 -0.9245830774 19.52498055
rfoot  0.3690719306 -20.6246357 -37.76729584
rtoes  4.080411434 19.60170937 -102.0079575
lfemur  -5.476397038 -17.29356766 -22.42916679
ltibia  6.416865826 0.2937318683 8.337148666
lfoot  0.6641104221 -23.20951843 34.68555832
ltoes  -8.567206383 -18.13944626 -115.8207626
129
root  34.87875931 36.5756568 -14.27507325 10.39513779 -0.8971835971 4.284501076
lowerback  -8.691150665 1.668769836 0.5604869723
upperback  -3.928129911 1.760259986 -4.545259953
thorax  0.9599450231 0.6298400164 -4.871679783
lowerneck  -11.33899975 -9.036549568 -5.408919811
upperneck  11.22200012 -12.75399971 8.352620125
head  6.149769783 -5.968860149 2.314110041
lclavicle  0 -4.497500157e-015 -2.743230041e-014
lhumerus  -47.64979935 30.41939926 62.03290176
lradius  -0.1073223054 -6.507048965e-006 28.60409737
lwrist  3.192251654e-007 -3.790274832e-007 -30.23080063
lhand  -3.510014473e-031 -36.7737999 -10.77089977
lfingers  90 7.125020027 -90
lthumb  94.77711487 -25.60944939 100.9427948
rclavicle  0 -4.497500157e-015 -2.743230041e-014
rhumerus  52.74100113 -23.03919983 -48.02560043
rradius  -5.16745672e-007 2.214343908e-008 47.9516983
rwrist  0.0006954420824 -0.004670973402 -164.3079987
rhand  -3.164051973e-031 4.311739922 -5.490880013
rfingers  -90 -7.125020027 -90
rthumb  -84.0521698 -10.29120445 -59.7506218
rfemur  -12.04640579 14.13204288 12.39224052
rtibia  -0.9868771434 -0.9530335069 19.52459526
rfoot  0.3747136295 -20.63037109 -37.75194931
rtoes  4.081014633 19.60325623 -102.0097504
lfemur  -5.40092802 -17.32266235 -22.49407005
ltibia  6.480362415 0.3035488427 8.211270332
lfoot  0.6757714152 -23.20739365 34.66246796
ltoes  -8.563289642 -18.14311218 -115.8069229
130
root  34.87902363 36.57401979 -14.27463772 10.3967905 -0.8298485875 4.318459988
lowerback  -8.681340218 1.698340178 0.6070350409
upperback  -3.928499937 1.797029972 -4.559460163
thorax  0.9593359828 0.6480780244 -4.90970993
lowerneck  -11.32549953 -9.077850342 -5.462389946
upperneck  11.20720005 -12.80589962 8.388549805
head  6.156264305 -5.994879246 2.325035572
lclavicle  0 -4.497500157e-015 -2.743230041e-014
lhumerus  -47.58100128 30.33799934 62.1012001
lradius  -0.1087869629 -6.507048965e-006 28.58838272
lwrist  3.192251654e-007 -3.790274832e-007 -30.20849991
lhand  -3.521910065e-031 -36.75149918 -10.63049984
lfingers  90 7.125020027 -90
lthumb  94.73712921 -25.47230148 100.9061661
rclavicle  0 -4.497500157e-015 -2.743230041e-014
rhumerus  53.35900116 -23.16760063 -48.38280106
rradius  -5.16745672e-007 2.214343908e-008 47.13600159
rwrist  0.0006954420824 -0.004670973402 -163.7389984
rhand  -3.17306783e-031 4.282569885 -5.357419968
rfingers  -90 -7.125020027 -90
rthumb  -83.99145508 -10.4051218 -59.76700974
rfemur  -12.03736305 14.10244274 12.37848377
rtibia  -1.017733335 -0.991505444 19.52607727
rfoot  0.3638828099 -20.65300941 -37.79594803
rtoes  4.062334061 19.60474014 -101.9540558
lfemur  -5.550656796 -17.37162971 -22.46546364
ltibia  6.378702641 0.2878406644 8.437202454
lfoot  0.6906365156 -23.28484154 34.59376144
ltoes  -8.557136536 -18.14580917 -115.8050537
131
root  34.87942313 36.57031923 -14.27423372 10.39710522 -0.7565519214 4.335400581
lowerback  -8.691888809 1.711369991 0.6250706911
upperback  -3.925407171 1.813840032 -4.576660156
thorax  0.9746819735 0.6565350294 -4.936260223
lowerneck  -11.33250046 -9.107660294 -5.473859787
upperneck  11.20639992 -12.84459877 8.393589973
head  6.153644562 -6.012694359 2.332560301
lclavicle  0 -4.497500157e-015 -2.743230041e-014
lhumerus  -47.56000137 30.30870056 62.09880066
lradius  -0.1102465168 -6.507048965e-006 28.59311104
lwrist  3.192251654e-007 -3.790274832e-007 -30.28249931
lhand  -3.523645932e-031 -36.72829819 -10.61279964
lfingers  90 7.125020027 -90
lthumb  94.72257996 -25.45578575 100.8797607
rclavicle  0 -4.497500157e-015 -2.743230041e-014
rhumerus  53.72519684 -23.20669937 -48.46500015
rradius  -5.16745672e-007 2.214343908e-008 46.59500122
rwrist  0.0006954420824 -0.004670973402 -163.3860016
rhand  -3.176609877e-031 4.220739841 -5.305339813
rfingers  -90 -7.125020027 -90
rthumb  -83.98096466 -10.447258 -59.82281876
rfemur  -12.01509953 14.04070759 12.37436581
rtibia  -1.031279445 -1.031012893 19.50029755
rfoot  0.3896737397 -20.68904686 -37.75366592
rtoes  4.04254818 19.60474014 -101.8950806
lfemur  -5.666322708 -17.41606331 -22.42686844
ltibia  6.299679279 0.2818233669 8.612792015
lfoot  0.7029492855 -23.35644722 34.53234863
ltoes  -8.556124687 -18.14553261 -115.7851791
